<svg width="3995" height="2625" viewBox="0 0 3995 2625" fill="none" xmlns="http://www.w3.org/2000/svg">
<path d="M3537.95 2170.61H218.2C195.538 2170.59 173.812 2161.9 157.788 2146.45C141.764 2131 132.75 2110.05 132.724 2088.19V114.357C132.743 98.3488 139.346 83.0009 151.085 71.6808C162.825 60.3608 178.741 53.9931 195.344 53.9746H3559.73C3576.62 53.9931 3592.81 60.4708 3604.75 71.9865C3616.69 83.5023 3623.41 99.1157 3623.43 115.401V2088.19C3623.4 2110.05 3614.39 2131 3598.37 2146.45C3582.34 2161.9 3560.61 2170.59 3537.95 2170.61V2170.61Z" fill="#F2F2F2"/>
<path d="M3416.85 2068.88H322.928C277.574 2068.88 240.677 2035.56 240.677 1994.61V275.77C240.677 245.399 268.019 220.689 301.627 220.689H3437.14C3471.31 220.689 3499.1 245.806 3499.1 276.677V1994.61C3499.1 2035.56 3462.2 2068.88 3416.85 2068.88Z" fill="white"/>
<path d="M3622.24 124.629H131.525V82.6681C131.558 60.744 140.608 39.7277 156.69 24.2298C172.773 8.73194 194.574 0.0180997 217.311 0H3536.45C3559.19 0.0179942 3580.99 8.73177 3597.07 24.2297C3613.16 39.7276 3622.21 60.744 3622.24 82.6681V124.629Z" fill="#E45423"/>
<path d="M287.429 83.8353C299.684 83.8353 309.618 74.2559 309.618 62.4391C309.618 50.6224 299.684 41.043 287.429 41.043C275.174 41.043 265.239 50.6224 265.239 62.4391C265.239 74.2559 275.174 83.8353 287.429 83.8353Z" fill="white"/>
<path d="M371.654 83.8353C383.909 83.8353 393.844 74.2559 393.844 62.4391C393.844 50.6224 383.909 41.043 371.654 41.043C359.399 41.043 349.465 50.6224 349.465 62.4391C349.465 74.2559 359.399 83.8353 371.654 83.8353Z" fill="white"/>
<path d="M455.88 83.8353C468.135 83.8353 478.07 74.2559 478.07 62.4391C478.07 50.6224 468.135 41.043 455.88 41.043C443.625 41.043 433.691 50.6224 433.691 62.4391C433.691 74.2559 443.625 83.8353 455.88 83.8353Z" fill="white"/>
<path d="M1778.37 1847.11H701.695C677.66 1847.08 654.617 1837.86 637.622 1821.47C620.627 1805.09 611.067 1782.87 611.04 1759.69V505.149C611.06 487.816 618.209 471.199 630.92 458.943C643.63 446.686 660.864 439.792 678.839 439.771H1800.14C1818.4 439.792 1835.91 446.796 1848.82 459.248C1861.74 471.701 1869 488.583 1869.02 506.193V1759.69C1869 1782.87 1859.44 1805.09 1842.44 1821.47C1825.44 1837.86 1802.4 1847.08 1778.37 1847.11V1847.11ZM678.839 449.762C663.61 449.779 649.01 455.62 638.242 466.003C627.474 476.387 621.417 490.465 621.4 505.149V1759.69C621.424 1780.22 629.891 1799.9 644.945 1814.41C659.998 1828.93 680.407 1837.09 701.695 1837.12H1778.37C1799.66 1837.09 1820.06 1828.93 1835.12 1814.41C1850.17 1799.9 1858.64 1780.22 1858.66 1759.69V506.193C1858.64 491.232 1852.47 476.888 1841.5 466.309C1830.53 455.73 1815.66 449.779 1800.14 449.762H678.839Z" fill="#CCCCCC"/>
<path d="M784.581 1759.69H1695.48C1717.46 1759.69 1738.55 1751.27 1754.09 1736.28C1769.63 1721.29 1778.37 1700.96 1778.37 1679.77V608.078C1778.37 586.881 1769.63 566.553 1754.09 551.565C1738.55 536.576 1717.46 528.156 1695.48 528.156H784.581C762.598 528.156 741.516 536.576 725.972 551.565C710.428 566.553 701.695 586.881 701.695 608.078V1679.77C701.695 1700.96 710.428 1721.29 725.972 1736.28C741.516 1751.27 762.598 1759.69 784.581 1759.69Z" fill="#E6E6E6"/>
<path d="M1491.28 746.811H988.785C979.855 746.811 971.29 743.391 964.976 737.302C958.661 731.213 955.113 722.954 955.113 714.343C955.113 705.732 958.661 697.474 964.976 691.385C971.29 685.296 979.855 681.875 988.785 681.875H1491.28C1500.21 681.875 1508.77 685.296 1515.09 691.385C1521.4 697.474 1524.95 705.732 1524.95 714.343C1524.95 722.954 1521.4 731.213 1515.09 737.302C1508.77 743.391 1500.21 746.811 1491.28 746.811V746.811Z" fill="white"/>
<path d="M1491.28 1451.12H988.785C979.855 1451.12 971.29 1447.7 964.976 1441.61C958.661 1435.52 955.113 1427.26 955.113 1418.65C955.113 1410.04 958.661 1401.78 964.976 1395.7C971.29 1389.61 979.855 1386.19 988.785 1386.19H1491.28C1500.21 1386.19 1508.77 1389.61 1515.09 1395.7C1521.4 1401.78 1524.95 1410.04 1524.95 1418.65C1524.95 1427.26 1521.4 1435.52 1515.09 1441.61C1508.77 1447.7 1500.21 1451.12 1491.28 1451.12V1451.12Z" fill="white"/>
<path d="M1491.28 1605.97H988.785C979.855 1605.97 971.29 1602.55 964.976 1596.46C958.661 1590.37 955.113 1582.11 955.113 1573.5C955.113 1564.89 958.661 1556.63 964.976 1550.54C971.29 1544.46 979.855 1541.04 988.785 1541.04H1491.28C1500.21 1541.04 1508.77 1544.46 1515.09 1550.54C1521.4 1556.63 1524.95 1564.89 1524.95 1573.5C1524.95 1582.11 1521.4 1590.37 1515.09 1596.46C1508.77 1602.55 1500.21 1605.97 1491.28 1605.97V1605.97Z" fill="white"/>
<path d="M1242.62 1223.85C1354.2 1223.85 1444.65 1136.63 1444.65 1029.04C1444.65 921.446 1354.2 834.227 1242.62 834.227C1131.04 834.227 1040.59 921.446 1040.59 1029.04C1040.59 1136.63 1131.04 1223.85 1242.62 1223.85Z" fill="white"/>
<path d="M2542.28 850.526L2454.03 868.475C2453.25 868.633 2452.52 868.961 2451.9 869.435C2451.27 869.908 2450.77 870.514 2450.42 871.205C2450.08 871.896 2449.91 872.654 2449.92 873.42C2449.93 874.186 2450.12 874.94 2450.48 875.623L2458.7 891.245L2059.58 1086.59C2058.98 1086.89 2058.44 1087.3 2057.99 1087.79C2057.55 1088.29 2057.22 1088.87 2057.01 1089.49C2056.79 1090.12 2056.71 1090.77 2056.76 1091.43C2056.82 1092.08 2057 1092.72 2057.31 1093.3C2057.62 1093.89 2058.04 1094.41 2058.56 1094.84C2059.08 1095.26 2059.67 1095.59 2060.32 1095.79C2060.97 1095.99 2061.65 1096.07 2062.33 1096.02C2063.01 1095.97 2063.67 1095.79 2064.27 1095.5L2463.39 900.152L2471.61 915.775C2471.97 916.458 2472.49 917.053 2473.13 917.512C2473.76 917.972 2474.5 918.284 2475.28 918.424C2476.06 918.565 2476.86 918.531 2477.63 918.324C2478.39 918.117 2479.1 917.743 2479.69 917.231L2546.81 859.13C2547.66 858.396 2548.24 857.412 2548.44 856.331C2548.65 855.25 2548.49 854.133 2547.97 853.152C2547.46 852.171 2546.62 851.383 2545.59 850.908C2544.56 850.433 2543.4 850.299 2542.28 850.526Z" fill="#E6E6E6"/>
<path d="M2542.28 1336.08L2454.03 1318.13C2453.25 1317.98 2452.52 1317.65 2451.9 1317.17C2451.27 1316.7 2450.77 1316.09 2450.42 1315.4C2450.08 1314.71 2449.91 1313.95 2449.92 1313.19C2449.93 1312.42 2450.12 1311.67 2450.48 1310.99L2458.7 1295.36L2059.58 1100.02C2058.98 1099.72 2058.44 1099.31 2057.99 1098.81C2057.55 1098.32 2057.22 1097.74 2057.01 1097.12C2056.79 1096.49 2056.71 1095.83 2056.76 1095.18C2056.82 1094.53 2057 1093.89 2057.31 1093.3C2057.62 1092.72 2058.04 1092.2 2058.56 1091.77C2059.08 1091.35 2059.67 1091.02 2060.32 1090.82C2060.97 1090.61 2061.65 1090.53 2062.33 1090.59C2063.01 1090.64 2063.67 1090.81 2064.27 1091.11L2463.39 1286.46L2471.61 1270.83C2471.97 1270.15 2472.49 1269.56 2473.13 1269.1C2473.76 1268.64 2474.5 1268.32 2475.28 1268.18C2476.06 1268.04 2476.86 1268.08 2477.63 1268.28C2478.39 1268.49 2479.1 1268.86 2479.69 1269.38L2546.81 1327.48C2547.66 1328.21 2548.24 1329.2 2548.44 1330.28C2548.65 1331.36 2548.49 1332.48 2547.97 1333.46C2547.46 1334.44 2546.62 1335.23 2545.59 1335.7C2544.56 1336.18 2543.4 1336.31 2542.28 1336.08V1336.08Z" fill="#E6E6E6"/>
<path d="M2833.19 961.687C2810.65 961.687 2788.61 955.242 2769.87 943.167C2751.13 931.092 2736.52 913.929 2727.89 893.849C2719.27 873.769 2717.01 851.673 2721.41 830.356C2725.81 809.039 2736.66 789.458 2752.6 774.089C2768.54 758.72 2788.84 748.254 2810.95 744.014C2833.06 739.774 2855.97 741.95 2876.8 750.267C2897.62 758.585 2915.42 772.67 2927.95 790.742C2940.47 808.814 2947.15 830.06 2947.15 851.795C2947.12 880.93 2935.1 908.862 2913.74 929.464C2892.37 950.066 2863.4 961.654 2833.19 961.687V961.687ZM2833.19 751.893C2812.69 751.893 2792.66 757.752 2775.63 768.729C2758.59 779.707 2745.31 795.309 2737.47 813.564C2729.62 831.819 2727.57 851.906 2731.57 871.285C2735.57 890.664 2745.44 908.465 2759.92 922.436C2774.41 936.408 2792.88 945.923 2812.97 949.778C2833.07 953.632 2853.9 951.654 2872.83 944.092C2891.77 936.531 2907.95 923.726 2919.33 907.298C2930.72 890.869 2936.79 871.554 2936.79 851.795C2936.76 825.308 2925.84 799.915 2906.41 781.187C2886.99 762.458 2860.65 751.923 2833.19 751.893V751.893Z" fill="#E6E6E6"/>
<path d="M2833.19 1446.21C2810.65 1446.21 2788.61 1439.77 2769.87 1427.69C2751.13 1415.62 2736.52 1398.45 2727.89 1378.37C2719.27 1358.29 2717.01 1336.2 2721.41 1314.88C2725.81 1293.56 2736.66 1273.98 2752.6 1258.61C2768.54 1243.25 2788.84 1232.78 2810.95 1228.54C2833.06 1224.3 2855.97 1226.48 2876.8 1234.79C2897.62 1243.11 2915.42 1257.2 2927.95 1275.27C2940.47 1293.34 2947.15 1314.59 2947.15 1336.32C2947.12 1365.46 2935.1 1393.39 2913.74 1413.99C2892.37 1434.59 2863.4 1446.18 2833.19 1446.21V1446.21ZM2833.19 1236.42C2812.69 1236.42 2792.66 1242.28 2775.63 1253.25C2758.59 1264.23 2745.31 1279.83 2737.47 1298.09C2729.62 1316.34 2727.57 1336.43 2731.57 1355.81C2735.57 1375.19 2745.44 1392.99 2759.92 1406.96C2774.41 1420.93 2792.88 1430.45 2812.97 1434.3C2833.07 1438.16 2853.9 1436.18 2872.83 1428.62C2891.77 1421.06 2907.95 1408.25 2919.33 1391.82C2930.72 1375.39 2936.79 1356.08 2936.79 1336.32C2936.76 1309.83 2925.84 1284.44 2906.41 1265.71C2886.99 1246.98 2860.65 1236.45 2833.19 1236.42V1236.42Z" fill="#E6E6E6"/>
<path d="M2824.15 905.945C2820.86 905.951 2817.65 904.923 2815.02 903.019L2814.86 902.901L2780.46 877.528C2778.87 876.35 2777.53 874.882 2776.52 873.206C2775.52 871.53 2774.87 869.68 2774.6 867.761C2774.34 865.842 2774.47 863.892 2774.99 862.022C2775.51 860.152 2776.41 858.399 2777.63 856.863C2778.85 855.327 2780.37 854.037 2782.11 853.069C2783.85 852.1 2785.77 851.471 2787.76 851.218C2789.75 850.964 2791.77 851.091 2793.71 851.592C2795.65 852.092 2797.47 852.955 2799.06 854.133L2821.34 870.608L2873.99 804.377C2875.21 802.841 2876.73 801.553 2878.47 800.585C2880.21 799.616 2882.12 798.988 2884.11 798.734C2886.1 798.481 2888.12 798.608 2890.06 799.108C2892 799.608 2893.82 800.471 2895.41 801.648L2895.42 801.651L2895.09 802.089L2895.42 801.651C2898.64 804.032 2900.74 807.545 2901.27 811.418C2901.8 815.292 2900.71 819.21 2898.25 822.312L2836.32 900.18C2834.89 901.974 2833.05 903.425 2830.94 904.422C2828.83 905.419 2826.51 905.934 2824.17 905.928L2824.15 905.945Z" fill="#E6E6E6"/>
<path d="M2783.73 1384C2783.01 1383.31 2782.44 1382.48 2782.05 1381.57C2781.66 1380.66 2781.46 1379.69 2781.46 1378.7C2781.46 1377.72 2781.66 1376.75 2782.05 1375.84C2782.44 1374.93 2783.01 1374.1 2783.73 1373.41L2871.65 1288.64C2873.11 1287.23 2875.08 1286.44 2877.14 1286.45C2879.2 1286.45 2881.18 1287.24 2882.63 1288.64C2884.09 1290.04 2884.91 1291.95 2884.91 1293.94C2884.91 1295.92 2884.09 1297.83 2882.64 1299.23L2794.72 1384C2794 1384.7 2793.15 1385.25 2792.2 1385.63C2791.26 1386 2790.25 1386.2 2789.23 1386.2C2788.21 1386.2 2787.2 1386 2786.26 1385.63C2785.31 1385.25 2784.46 1384.7 2783.73 1384Z" fill="#E6E6E6"/>
<path d="M2877.46 1384C2878.18 1383.31 2878.75 1382.48 2879.14 1381.57C2879.53 1380.66 2879.73 1379.69 2879.73 1378.7C2879.73 1377.72 2879.53 1376.75 2879.14 1375.84C2878.75 1374.93 2878.18 1374.1 2877.46 1373.41L2789.54 1288.64C2788.09 1287.23 2786.11 1286.44 2784.05 1286.45C2781.99 1286.45 2780.01 1287.24 2778.56 1288.64C2777.1 1290.04 2776.28 1291.95 2776.28 1293.94C2776.28 1295.92 2777.1 1297.83 2778.55 1299.23L2866.47 1384C2867.19 1384.7 2868.05 1385.25 2868.99 1385.63C2869.93 1386 2870.94 1386.2 2871.96 1386.2C2872.98 1386.2 2873.99 1386 2874.94 1385.63C2875.88 1385.25 2876.74 1384.7 2877.46 1384V1384Z" fill="#E6E6E6"/>
<path d="M3029.98 1097.32C3029.64 1097.32 3029.3 1097.3 3028.97 1097.25C3028.07 1097.13 3027.21 1096.83 3026.43 1096.39C3025.66 1095.94 3024.98 1095.35 3024.44 1094.65L2982.09 1039.89C2981.91 1039.66 2981.67 1039.48 2981.4 1039.36C2981.12 1039.25 2980.82 1039.21 2980.52 1039.24C2980.23 1039.27 2979.94 1039.38 2979.7 1039.56C2979.46 1039.73 2979.27 1039.96 2979.15 1040.23L2957.44 1089.21C2956.88 1090.49 2955.91 1091.56 2954.68 1092.28C2953.45 1093 2952.02 1093.33 2950.59 1093.22C2949.15 1093.12 2947.79 1092.58 2946.69 1091.69C2945.59 1090.8 2944.8 1089.6 2944.44 1088.26L2901.11 926.546C2900.77 925.269 2900.83 923.923 2901.28 922.679C2901.74 921.435 2902.56 920.349 2903.66 919.561C2904.76 918.773 2906.07 918.317 2907.44 918.252C2908.81 918.187 2910.16 918.516 2911.33 919.197L3059.7 1005.39C3060.93 1006.1 3061.9 1007.17 3062.47 1008.44C3063.04 1009.72 3063.18 1011.13 3062.88 1012.48C3062.57 1013.84 3061.83 1015.07 3060.77 1016C3059.7 1016.93 3058.36 1017.51 3056.93 1017.67L3002.07 1023.76C3001.77 1023.79 3001.48 1023.9 3001.24 1024.07C3001 1024.24 3000.81 1024.47 3000.69 1024.74C3000.57 1025.01 3000.53 1025.3 3000.56 1025.58C3000.6 1025.87 3000.71 1026.15 3000.89 1026.38L3043.24 1081.13C3044.33 1082.54 3044.79 1084.32 3044.53 1086.06C3044.27 1087.8 3043.3 1089.37 3041.83 1090.43L3034.08 1096C3032.89 1096.86 3031.45 1097.32 3029.98 1097.32V1097.32Z" fill="#E45423"/>
<path d="M3270.92 1216.44H3084.43C3070.69 1216.44 3057.52 1211.17 3047.8 1201.81C3038.09 1192.44 3032.63 1179.73 3032.63 1166.49C3032.63 1153.24 3038.09 1140.53 3047.8 1131.17C3057.52 1121.8 3070.69 1116.54 3084.43 1116.54H3270.92C3284.66 1116.54 3297.84 1121.8 3307.55 1131.17C3317.27 1140.53 3322.73 1153.24 3322.73 1166.49C3322.73 1179.73 3317.27 1192.44 3307.55 1201.81C3297.84 1211.17 3284.66 1216.44 3270.92 1216.44V1216.44Z" fill="#E45423"/>
<path d="M1010.85 871.22L1003.1 865.645C1001.63 864.59 1000.66 863.02 1000.4 861.277C1000.14 859.535 1000.6 857.763 1001.69 856.35L1044.04 801.596C1044.22 801.364 1044.33 801.091 1044.36 800.803C1044.4 800.516 1044.36 800.225 1044.24 799.959C1044.12 799.693 1043.93 799.463 1043.69 799.29C1043.45 799.118 1043.16 799.01 1042.86 798.976L987.998 792.891C986.57 792.733 985.228 792.148 984.163 791.217C983.097 790.287 982.36 789.058 982.054 787.703C981.749 786.349 981.891 784.936 982.461 783.663C983.031 782.39 983.999 781.321 985.231 780.606L1133.6 694.416C1134.77 693.735 1136.12 693.406 1137.49 693.471C1138.86 693.536 1140.17 693.991 1141.27 694.78C1142.36 695.568 1143.19 696.653 1143.65 697.897C1144.1 699.141 1144.16 700.488 1143.82 701.765L1100.49 863.481C1100.13 864.824 1099.34 866.024 1098.24 866.913C1097.14 867.803 1095.78 868.338 1094.34 868.442C1092.91 868.547 1091.48 868.216 1090.25 867.497C1089.02 866.777 1088.05 865.705 1087.49 864.43L1065.77 815.445C1065.66 815.179 1065.47 814.948 1065.23 814.775C1064.99 814.602 1064.7 814.493 1064.41 814.459C1064.11 814.425 1063.81 814.468 1063.53 814.582C1063.26 814.696 1063.02 814.879 1062.84 815.111L1020.49 869.867C1019.95 870.568 1019.27 871.158 1018.5 871.605C1017.72 872.052 1016.86 872.346 1015.96 872.469C1015.63 872.516 1015.29 872.539 1014.95 872.54C1013.47 872.539 1012.04 872.076 1010.85 871.22V871.22Z" fill="#3F3D56"/>
<path d="M722.202 941.705C722.218 928.462 727.681 915.765 737.392 906.401C747.104 897.036 760.271 891.769 774.005 891.754H960.497C974.236 891.754 987.413 897.017 997.128 906.384C1006.84 915.752 1012.3 928.457 1012.3 941.705C1012.3 954.953 1006.84 967.658 997.128 977.026C987.413 986.393 974.236 991.656 960.497 991.656H774.005C760.271 991.641 747.104 986.374 737.392 977.009C727.681 967.645 722.218 954.948 722.202 941.705V941.705Z" fill="#3F3D56"/>
<path d="M3487.2 1847.17C3492.81 1842.21 3497.23 1836.12 3500.13 1829.34C3503.04 1822.55 3504.37 1815.23 3504.03 1807.89C3503.69 1800.56 3501.68 1793.38 3498.16 1786.88C3494.63 1780.37 3489.66 1774.69 3483.61 1770.23L3541.52 1600.69L3448.68 1624.97L3407.92 1782.24C3400.83 1792.54 3397.9 1804.99 3399.69 1817.24C3401.49 1829.48 3407.87 1840.66 3417.65 1848.66C3427.42 1856.67 3439.9 1860.94 3452.71 1860.66C3465.53 1860.39 3477.8 1855.59 3487.2 1847.17V1847.17Z" fill="#A0616A"/>
<path d="M3651.86 2624.23H3588.36L3558.14 2388.02H3651.88L3651.86 2624.23Z" fill="#A0616A"/>
<path d="M3650.83 2555.19L3576.23 2554.99C3573.03 2555.38 3569.78 2555.12 3566.69 2554.23C3563.61 2553.33 3560.75 2551.82 3558.31 2549.79C3555.81 2547.74 3553.79 2545.2 3552.38 2542.34C3550.97 2539.48 3550.21 2536.37 3550.13 2533.21L3558.72 1737.1L3902.99 1733.79L3883.02 2527.34C3882.91 2533.21 3880.4 2538.81 3876.04 2542.92C3871.67 2547.02 3865.81 2549.31 3859.71 2549.27H3782.79C3776.75 2549.29 3770.94 2547.04 3766.6 2543C3762.25 2538.97 3759.7 2533.46 3759.49 2527.64L3740.87 2051.36C3740.88 2051.04 3740.82 2050.72 3740.69 2050.42C3740.56 2050.12 3740.37 2049.85 3740.13 2049.63C3739.9 2049.4 3739.61 2049.23 3739.3 2049.11C3738.99 2048.99 3738.66 2048.94 3738.32 2048.95C3737.66 2048.93 3737.01 2049.17 3736.52 2049.6C3736.03 2050.04 3735.74 2050.64 3735.7 2051.28L3670.92 2534.58C3670.52 2539.71 3668.31 2544.56 3664.65 2548.31C3660.99 2552.06 3656.11 2554.49 3650.83 2555.19Z" fill="#2F2E41"/>
<path d="M3715.06 1791.34C3664.19 1791.34 3610.43 1782.58 3561.91 1756.96C3558.28 1755.05 3555.24 1752.24 3553.09 1748.83C3550.94 1745.43 3549.76 1741.53 3549.67 1737.54L3542.89 1374.21L3533.34 1296.46C3527.62 1250.21 3536.16 1203.37 3557.9 1161.78C3579.65 1120.19 3613.63 1085.71 3655.59 1062.64L3660 1060.22L3672.42 1032.26C3673.43 1029.95 3675.15 1027.99 3677.34 1026.64C3679.53 1025.29 3682.1 1024.61 3684.7 1024.7L3851.72 1029.3C3854.38 1029.38 3856.94 1030.24 3859.07 1031.77C3861.2 1033.29 3862.79 1035.41 3863.64 1037.84L3871.4 1060.28C3914.27 1084.01 3948.67 1119.71 3970.07 1162.67C3991.47 1205.63 3998.86 1253.84 3991.26 1300.94L3922.8 1737.86C3922.18 1741.79 3920.5 1745.49 3917.91 1748.59C3915.33 1751.69 3911.94 1754.07 3908.09 1755.49C3877.79 1766.59 3800.52 1791.34 3715.06 1791.34Z" fill="#3F3D56"/>
<path d="M3495.01 1742.07C3494.02 1742.07 3493.03 1741.96 3492.07 1741.74L3422.69 1726C3419.39 1725.24 3416.54 1723.26 3414.73 1720.5C3412.92 1717.74 3412.3 1714.41 3413 1711.21L3509.28 1281.23L3528.66 1169.05C3530.53 1158.23 3535.21 1148.04 3542.26 1139.43C3549.31 1130.83 3558.51 1124.08 3568.99 1119.82C3579.48 1115.56 3590.91 1113.92 3602.22 1115.07C3613.54 1116.21 3624.37 1120.09 3633.7 1126.36V1126.36C3644.52 1133.6 3652.89 1143.74 3657.79 1155.53C3662.69 1167.31 3663.91 1180.22 3661.29 1192.66L3592.05 1522.02L3507.12 1734.09C3506.16 1736.44 3504.5 1738.46 3502.34 1739.88C3500.18 1741.3 3497.63 1742.07 3495.01 1742.07V1742.07Z" fill="#3F3D56"/>
<path d="M328.324 1663.92C320.746 1663.18 313.428 1660.86 306.885 1657.1C300.342 1653.34 294.732 1648.25 290.452 1642.17C286.171 1636.1 283.324 1629.2 282.11 1621.95C280.896 1614.7 281.346 1607.28 283.427 1600.21L131.777 1497.85L221.217 1463.7L351.514 1566.14C363.589 1570.3 373.663 1578.58 379.827 1589.42C385.991 1600.27 387.817 1612.91 384.958 1624.96C382.1 1637.01 374.756 1647.64 364.317 1654.82C353.879 1662 341.073 1665.23 328.324 1663.92Z" fill="#FFB8B8"/>
<path d="M245.97 1586.1L108.634 1509.3C94.8361 1501.78 82.8114 1491.57 73.3248 1479.33C63.8382 1467.08 57.0972 1453.07 53.5302 1438.18C50.3092 1424.09 50.1166 1409.52 52.9644 1395.35C55.8122 1381.19 61.64 1367.74 70.0881 1355.83L183.777 1194.13C191.819 1182.69 204.047 1174.61 218.011 1171.49C231.975 1168.38 246.643 1170.47 259.078 1177.34C271.512 1184.21 280.793 1195.36 285.061 1208.56C289.329 1221.75 288.27 1236.01 282.095 1248.48L193.319 1427.83L283.252 1504.19C286.361 1506.83 288.684 1510.23 289.982 1514.03C291.28 1517.82 291.505 1521.89 290.635 1525.79L280.454 1571.39C279.699 1574.86 278.092 1578.11 275.769 1580.86C273.446 1583.61 270.473 1585.79 267.098 1587.21C263.74 1588.66 260.07 1589.32 256.395 1589.13C252.719 1588.94 249.145 1587.9 245.97 1586.1L245.97 1586.1Z" fill="#3F3D56"/>
<path d="M868.249 1226.8C865.944 1233.8 862.077 1240.22 856.918 1245.63C851.759 1251.03 845.435 1255.27 838.391 1258.06C831.346 1260.85 823.753 1262.12 816.146 1261.77C808.539 1261.43 801.103 1259.48 794.362 1256.06L659.278 1378.11L643.013 1286.69L773.785 1184.81C780.488 1174.27 790.967 1166.46 803.237 1162.88C815.507 1159.29 828.716 1160.17 840.36 1165.34C852.004 1170.52 861.274 1179.64 866.414 1190.96C871.554 1202.29 872.207 1215.04 868.249 1226.8V1226.8Z" fill="#FFB8B8"/>
<path d="M314.972 1066.58C385.242 1066.58 442.207 1011.65 442.207 943.896C442.207 876.139 385.242 821.211 314.972 821.211C244.703 821.211 187.738 876.139 187.738 943.896C187.738 1011.65 244.703 1066.58 314.972 1066.58Z" fill="#FFB8B8"/>
<path d="M689.595 2622.24L750.469 2604.78L709.576 2370.07L619.733 2395.84L689.595 2622.24Z" fill="#FFB8B8"/>
<path d="M22.6904 2619.23H86.1961L116.413 2383.02H53.762L22.6904 2619.23Z" fill="#FFB8B8"/>
<path d="M644.158 2537.7L405.935 1876.71C405.435 1875.25 404.475 1873.99 403.191 1873.09C401.907 1872.18 400.363 1871.69 398.774 1871.68C397.181 1871.59 395.602 1872 394.27 1872.85C392.939 1873.7 391.926 1874.94 391.382 1876.39L116.882 2538.08C115.093 2542.43 111.934 2546.13 107.848 2548.66C103.762 2551.19 98.9557 2552.42 94.1065 2552.18L22.4597 2548.83C19.0096 2548.67 15.6398 2547.77 12.5941 2546.2C9.54837 2544.63 6.9028 2542.42 4.84873 2539.74C2.79466 2537.07 1.38343 2533.98 0.717102 2530.71C0.0507734 2527.45 0.146073 2524.08 0.995974 2520.85L260.65 1534.09L521.153 1513.6L522.854 1515.96C524.262 1517.92 663.645 1715.78 663.559 2057.38L752.873 2526.25C753.491 2529.49 753.361 2532.83 752.494 2536.01C751.627 2539.2 750.044 2542.17 747.856 2544.7C745.669 2547.23 742.93 2549.27 739.835 2550.67C736.74 2552.07 733.364 2552.79 729.946 2552.79H666.179C661.337 2552.79 656.617 2551.34 652.671 2548.63C648.726 2545.93 645.751 2542.1 644.158 2537.7Z" fill="#2F2E41"/>
<path d="M167.796 1310.28C158.631 1284.98 156.368 1257.82 161.226 1231.43C166.083 1205.04 177.898 1180.3 195.534 1159.58C212.76 1138.98 235.19 1123 260.668 1113.17C286.147 1103.34 313.82 1099.98 341.028 1103.44C343.187 1103.71 345.333 1104 347.465 1104.28C382.099 1108.79 414.293 1123.98 439.241 1147.58C464.189 1171.18 480.553 1201.92 485.892 1235.23L534.542 1533.58L257.185 1553.77L255.194 1553.91L167.796 1310.28Z" fill="#3F3D56"/>
<path d="M572.53 1431.34C557.353 1430.84 542.449 1427.3 528.767 1420.95C515.085 1414.59 502.923 1405.56 493.054 1394.43L361.853 1247.78C351.675 1236.79 346.349 1222.39 347.012 1207.67C347.421 1199.97 349.526 1192.45 353.188 1185.6C356.85 1178.74 361.984 1172.72 368.248 1167.94C378.587 1159.98 391.479 1155.74 404.708 1155.96C417.936 1156.17 430.672 1160.83 440.727 1169.12L597.193 1298.42L693.454 1233.85C696.907 1231.53 700.947 1230.16 705.145 1229.88C709.343 1229.59 713.542 1230.41 717.295 1232.25L763.367 1254.74C766.659 1256.35 769.509 1258.68 771.681 1261.56C773.853 1264.44 775.286 1267.77 775.862 1271.29C776.437 1274.8 776.139 1278.4 774.992 1281.78C773.845 1285.16 771.881 1288.23 769.263 1290.74L654.71 1400.44C644.5 1410.29 632.376 1418.09 619.031 1423.41C605.687 1428.72 591.385 1431.45 576.947 1431.42C575.48 1431.42 574.008 1431.39 572.53 1431.34Z" fill="#3F3D56"/>
<path d="M172.066 1002.33C183.766 1008.19 230.011 1012.07 233.305 1000.68L233.376 1000.43C235.669 992.084 233.765 983.368 233.106 974.805C232.448 966.243 233.411 956.837 240.113 950.541C252.604 938.805 274.828 945.026 292.891 942.059C303.472 940.004 312.829 934.664 319.212 927.038C325.594 919.413 328.565 910.025 327.568 900.63C327.311 898.851 326.908 897.069 326.455 895.288C325.326 890.777 325.413 886.099 326.71 881.621C328.008 877.144 330.48 872.989 333.933 869.483C337.386 865.977 341.726 863.216 346.612 861.415C351.498 859.614 356.797 858.824 362.093 859.105C380.348 860.014 400.052 864.827 415.155 853.06C426.835 843.961 429.685 820.275 424.553 807.385C415.929 785.722 360.685 774.381 336.565 768.147C306.734 760.646 275.357 759.025 244.715 763.4C214.073 767.776 184.936 778.038 159.424 793.442C144.189 802.787 129.961 814.53 123.467 829.735C116.974 844.939 120.107 864.122 134.749 874.159C123.399 884.617 115.407 897.487 111.573 911.479C107.738 925.472 108.197 940.096 112.903 953.885C120.135 974.165 154.651 993.609 172.066 1002.33Z" fill="#2F2E41"/>
</svg>
